<mxfile host="app.diagrams.net" modified="2021-01-11T03:22:34.440Z" agent="5.0 (Macintosh; Intel Mac OS X 10_15_6) AppleWebKit/537.36 (KHTML, like Gecko) Chrome/87.0.4280.141 Safari/537.36" etag="ymPuW55nCuM1pklVUHcf" version="14.0.1" type="github">
  <diagram id="jcBzVu0uwD0ST4s4jwbC" name="Page-1">
    <mxGraphModel dx="575" dy="771" grid="1" gridSize="10" guides="1" tooltips="1" connect="1" arrows="1" fold="1" page="1" pageScale="1" pageWidth="827" pageHeight="1169" math="0" shadow="0">
      <root>
        <mxCell id="0" />
        <mxCell id="1" parent="0" />
        <mxCell id="meQDzplPk3BVL1stYm_M-10" style="edgeStyle=orthogonalEdgeStyle;rounded=0;orthogonalLoop=1;jettySize=auto;html=1;exitX=1;exitY=0.5;exitDx=0;exitDy=0;entryX=0;entryY=0.5;entryDx=0;entryDy=0;" edge="1" parent="1" source="meQDzplPk3BVL1stYm_M-1" target="meQDzplPk3BVL1stYm_M-9">
          <mxGeometry relative="1" as="geometry" />
        </mxCell>
        <mxCell id="meQDzplPk3BVL1stYm_M-15" style="edgeStyle=orthogonalEdgeStyle;rounded=0;orthogonalLoop=1;jettySize=auto;html=1;exitX=0.5;exitY=1;exitDx=0;exitDy=0;" edge="1" parent="1" source="meQDzplPk3BVL1stYm_M-1" target="meQDzplPk3BVL1stYm_M-2">
          <mxGeometry relative="1" as="geometry" />
        </mxCell>
        <mxCell id="meQDzplPk3BVL1stYm_M-1" value="state" style="rounded=0;whiteSpace=wrap;html=1;" vertex="1" parent="1">
          <mxGeometry x="240" y="220" width="120" height="60" as="geometry" />
        </mxCell>
        <mxCell id="meQDzplPk3BVL1stYm_M-4" style="edgeStyle=orthogonalEdgeStyle;rounded=0;orthogonalLoop=1;jettySize=auto;html=1;entryX=0.5;entryY=1;entryDx=0;entryDy=0;" edge="1" parent="1" source="meQDzplPk3BVL1stYm_M-2" target="meQDzplPk3BVL1stYm_M-3">
          <mxGeometry relative="1" as="geometry" />
        </mxCell>
        <mxCell id="meQDzplPk3BVL1stYm_M-2" value="view(UI)" style="rounded=0;whiteSpace=wrap;html=1;" vertex="1" parent="1">
          <mxGeometry x="240" y="360" width="120" height="60" as="geometry" />
        </mxCell>
        <mxCell id="meQDzplPk3BVL1stYm_M-6" style="edgeStyle=orthogonalEdgeStyle;rounded=0;orthogonalLoop=1;jettySize=auto;html=1;exitX=1;exitY=0.5;exitDx=0;exitDy=0;entryX=0;entryY=0.5;entryDx=0;entryDy=0;" edge="1" parent="1" source="meQDzplPk3BVL1stYm_M-3" target="meQDzplPk3BVL1stYm_M-1">
          <mxGeometry relative="1" as="geometry" />
        </mxCell>
        <mxCell id="meQDzplPk3BVL1stYm_M-3" value="action" style="rounded=0;whiteSpace=wrap;html=1;" vertex="1" parent="1">
          <mxGeometry x="40" y="220" width="120" height="60" as="geometry" />
        </mxCell>
        <mxCell id="meQDzplPk3BVL1stYm_M-5" value="emitter" style="text;html=1;strokeColor=none;fillColor=none;align=center;verticalAlign=middle;whiteSpace=wrap;rounded=0;" vertex="1" parent="1">
          <mxGeometry x="120" y="340" width="40" height="20" as="geometry" />
        </mxCell>
        <mxCell id="meQDzplPk3BVL1stYm_M-8" value="dispatch" style="text;html=1;strokeColor=none;fillColor=none;align=center;verticalAlign=middle;whiteSpace=wrap;rounded=0;" vertex="1" parent="1">
          <mxGeometry x="180" y="220" width="40" height="20" as="geometry" />
        </mxCell>
        <mxCell id="meQDzplPk3BVL1stYm_M-12" style="edgeStyle=orthogonalEdgeStyle;rounded=0;orthogonalLoop=1;jettySize=auto;html=1;exitX=0;exitY=0.75;exitDx=0;exitDy=0;entryX=1;entryY=0.75;entryDx=0;entryDy=0;" edge="1" parent="1" source="meQDzplPk3BVL1stYm_M-9" target="meQDzplPk3BVL1stYm_M-1">
          <mxGeometry relative="1" as="geometry" />
        </mxCell>
        <mxCell id="meQDzplPk3BVL1stYm_M-9" value="store" style="rounded=0;whiteSpace=wrap;html=1;" vertex="1" parent="1">
          <mxGeometry x="440" y="220" width="120" height="60" as="geometry" />
        </mxCell>
        <mxCell id="meQDzplPk3BVL1stYm_M-11" value="reducer(prevState, action)" style="text;html=1;align=center;verticalAlign=middle;resizable=0;points=[];autosize=1;" vertex="1" parent="1">
          <mxGeometry x="315" y="220" width="150" height="20" as="geometry" />
        </mxCell>
        <mxCell id="meQDzplPk3BVL1stYm_M-13" value="newState" style="text;html=1;align=center;verticalAlign=middle;resizable=0;points=[];autosize=1;" vertex="1" parent="1">
          <mxGeometry x="355" y="280" width="70" height="20" as="geometry" />
        </mxCell>
        <mxCell id="meQDzplPk3BVL1stYm_M-16" value="render" style="text;html=1;align=center;verticalAlign=middle;resizable=0;points=[];autosize=1;" vertex="1" parent="1">
          <mxGeometry x="305" y="310" width="50" height="20" as="geometry" />
        </mxCell>
      </root>
    </mxGraphModel>
  </diagram>
</mxfile>
